<svg width="32" height="32" viewBox="0 0 32 32" fill="none" xmlns="http://www.w3.org/2000/svg">
<path d="M14.6667 0V4H17.3333V0H14.6667ZM5.63021 3.74479L3.74479 5.63021L6.57292 8.45833L8.45833 6.57292L5.63021 3.74479ZM26.3698 3.74479L23.5417 6.57292L25.4271 8.45833L28.2552 5.63021L26.3698 3.74479ZM16 6.66667C10.8609 6.66667 6.66667 10.8609 6.66667 16C6.66667 19.6904 8.87483 22.803 12 24.3125V28C12 29.4574 13.2093 30.6667 14.6667 30.6667H17.3333C18.7908 30.6667 20 29.4574 20 28V24.3125C23.1252 22.803 25.3333 19.6904 25.3333 16C25.3333 10.8609 21.1391 6.66667 16 6.66667ZM16 9.33333C19.6982 9.33333 22.6667 12.3018 22.6667 16C22.6667 18.9125 20.8071 21.3638 18.2214 22.2786L17.3333 22.5911V28H14.6667V22.5911L13.7786 22.2786C11.1929 21.3638 9.33333 18.9125 9.33333 16C9.33333 12.3018 12.3018 9.33333 16 9.33333ZM0 14.6667V17.3333H4V14.6667H0ZM28 14.6667V17.3333H32V14.6667H28ZM6.57292 23.5417L3.74479 26.3698L5.63021 28.2552L8.45833 25.4271L6.57292 23.5417ZM25.4271 23.5417L23.5417 25.4271L26.3698 28.2552L28.2552 26.3698L25.4271 23.5417Z" fill="black"/>
</svg>
