<svg width="25" height="25" viewBox="0 0 25 25" fill="none" xmlns="http://www.w3.org/2000/svg">
<path d="M11.0546 4.21863C6.66008 4.21863 3.08609 7.83214 3.08609 12.2657C3.08609 16.7189 6.66008 20.3125 11.0546 20.3125C13.0663 20.3125 14.9023 19.5506 16.3086 18.3006L16.758 18.75L16.3475 19.1795C16.1131 19.4139 16.1131 19.7851 16.3475 20.0195L19.8631 23.574C19.9803 23.6912 20.1173 23.7499 20.2736 23.7499C20.4298 23.7499 20.586 23.6912 20.6837 23.574L22.2462 21.9921C22.461 21.7577 22.4611 21.3867 22.2267 21.1719L18.7111 17.617C18.5939 17.4998 18.4569 17.4415 18.3006 17.4415C18.1444 17.4415 17.9882 17.4998 17.8905 17.617L17.4805 18.0469L17.0311 17.5781C18.2616 16.1523 19.0235 14.297 19.0235 12.2657C19.0235 7.83214 15.4491 4.21863 11.0546 4.21863ZM11.0546 5.40996C14.8046 5.40996 17.8516 8.49612 17.8516 12.2852C17.8516 16.0742 14.8046 19.1406 11.0546 19.1406C7.30461 19.1406 4.25797 16.0742 4.25797 12.2852C4.25797 8.49612 7.30461 5.40996 11.0546 5.40996ZM11.0741 7.85136C9.2186 7.85136 7.55859 9.04308 6.93359 10.8009C6.83594 11.0548 6.97258 11.3671 7.24602 11.4452C7.30461 11.4647 7.36328 11.4845 7.42188 11.4845C7.63672 11.4845 7.83203 11.3476 7.91016 11.1328C8.37891 9.78511 9.66782 8.86722 11.0741 8.86722C11.3475 8.86722 11.5822 8.63292 11.5822 8.35948C11.5822 8.08604 11.3475 7.85136 11.0741 7.85136ZM7.36313 12.6758C7.08969 12.6758 6.85539 12.8906 6.85539 13.1835V13.2617C6.87492 13.5352 7.09 13.7695 7.38297 13.7695C7.6564 13.7695 7.8907 13.5352 7.8907 13.2617V13.203C7.8907 12.91 7.67593 12.6758 7.38297 12.6758H7.36313ZM18.3205 18.8671L21.0155 21.6014L20.2736 22.3438L17.5781 19.6094L18.3205 18.8671Z" fill="black"/>
</svg>
